<svg height="512pt" viewBox="0 -48 512 512" width="512pt" xmlns="http://www.w3.org/2000/svg"><path d="m466.398438 295.605469v120l-95.5-3.300781-19.199219-21.898438-14.101563 20.699219-119.097656-4.199219-28.199219-23.101562-5.101562 21.898437-90-3.296875c-31.199219-1.203125-62.5-14.101562-84.398438-36.300781l-10.800781-10.5 10.800781-10.5c21.898438-22.199219 53.199219-35.097657 84.398438-36.300781l46.199219-1.5 24.601562 15.601562 7.5-16.800781 115.496094-4.199219 24.300781 23.699219 8.101563-24.902344zm0 0" fill="#b35f49"/><path d="m466.398438 355.605469v60l-95.5-3.300781-19.199219-21.898438-14.101563 20.699219-119.097656-4.199219-28.199219-23.101562-5.101562 21.898437-90-3.296875c-31.199219-1.203125-62.5-14.101562-84.398438-36.300781l-10.800781-10.5zm0 0" fill="#99503d"/><path d="m467 295.605469c-25.199219 0-45 26.402343-45 60 0 33.601562 19.800781 60 45 60s45-26.398438 45-60c0-33.597657-19.800781-60-45-60zm0 0" fill="#ff9100"/><path d="m218.5 406.90625-33.300781-1.203125-22.199219-50.097656-21.601562-48.300781 32.101562-1.199219 22.199219 49.5zm0 0" fill="#c6715a"/><path d="m370.902344 412.304688-33.304688-1.199219-24.597656-55.5-24-53.699219 32.398438-1.203125 24.300781 54.902344zm0 0" fill="#c6715a"/><path d="m495.203125 141.210938-21.210937-21.210938c10.691406-10.691406 10.691406-28.097656 0-38.789062-22.398438-22.382813-22.398438-58.828126 0-81.210938l21.210937 21.210938c-10.695313 10.691406-10.695313 28.097656 0 38.789062 22.394531 22.382812 22.394531 58.828125 0 81.210938zm0 0" fill="#dabba6"/><path d="m461.605469 261.210938-21.210938-21.210938c10.691407-10.691406 10.691407-28.097656 0-38.789062-22.398437-22.382813-22.398437-58.828126 0-81.210938l21.210938 21.210938c-10.695313 10.691406-10.695313 28.097656 0 38.789062 22.398437 22.382812 22.398437 58.828125 0 81.210938zm0 0" fill="#dabba6"/><path d="m195.699219 355.605469 22.800781 51.300781-33.300781-1.203125-22.199219-50.097656zm0 0" fill="#b35f49"/><path d="m345.699219 355.605469 25.203125 56.699219-33.304688-1.199219-24.597656-55.5zm0 0" fill="#b35f49"/><path d="m512 355.605469c0 33.601562-19.800781 60-45 60s-45-26.398438-45-60zm0 0" fill="#ff641a"/></svg>