<svg height="512pt" viewBox="0 -151 512 512" width="512pt" xmlns="http://www.w3.org/2000/svg"><path d="m429 210h-402c-8.285156 0-15-6.714844-15-15v-60c0-8.285156 6.714844-15 15-15h402c8.285156 0 15 6.714844 15 15v60c0 8.285156-6.714844 15-15 15zm0 0" fill="#f6efea"/><path d="m12 165v30c0 8.285156 6.714844 15 15 15h402c8.285156 0 15-6.714844 15-15v-30zm0 0" fill="#eee1dc"/><path d="m497 180c-8.285156 0-15-6.714844-15-15v-59.996094c0-8.273437-6.730469-15-15-15h-162c-24.8125 0-45-20.1875-45-45.003906 0-24.8125 20.1875-45 45-45h107c8.285156 0 15 6.714844 15 15s-6.714844 15-15 15h-107c-8.269531 0-15 6.730469-15 15 0 8.273438 6.730469 15.003906 15 15.003906h162c24.8125 0 45 20.1875 45 45v59.996094c0 8.285156-6.714844 15-15 15zm0 0" fill="#f6efea"/><path d="m0 135v60c0 8.285156 6.714844 15 15 15h133v-90h-133c-8.285156 0-15 6.714844-15 15zm0 0" fill="#ffdc55"/><path d="m437 120h-35v90h35c8.285156 0 15-6.714844 15-15v-60c0-8.285156-6.714844-15-15-15zm0 0" fill="#00607f"/><path d="m0 165v30c0 8.285156 6.714844 15 15 15h133v-45zm0 0" fill="#ecbd00"/><path d="m402 165v45h35c8.285156 0 15-6.714844 15-15v-30zm0 0" fill="#002c3c"/></svg>