<svg height="464pt" viewBox="-104 0 464 464" width="464pt" xmlns="http://www.w3.org/2000/svg"><path d="m0 80h256v384h-256zm0 0" fill="#d9176c"/><path d="m72 80h112v64h-112zm0 0" fill="#e6f1fd"/><path d="m48 176h160c8.835938 0 16 7.164062 16 16s-7.164062 16-16 16h-160c-8.835938 0-16-7.164062-16-16s7.164062-16 16-16zm0 0" fill="#fcf05a"/><path d="m128 240-128 88v136h256v-136zm0 0" fill="#e6f1fd"/><path d="m0 432h256v32h-256zm0 0" fill="#d9176c"/><g fill="#7d8d9c"><path d="m96 104h64v16h-64zm0 0"/><path d="m128 360c-22.089844 0-40-17.910156-40-40s17.910156-40 40-40 40 17.910156 40 40c-.027344 22.082031-17.917969 39.972656-40 40zm0-64c-13.253906 0-24 10.746094-24 24s10.746094 24 24 24 24-10.746094 24-24-10.746094-24-24-24zm0 0"/><path d="m80 376h96v16h-96zm0 0"/><path d="m192 376h16v16h-16zm0 0"/><path d="m48 376h16v16h-16zm0 0"/></g><path d="m208 0h32v80h-32zm0 0" fill="#d9833b"/><path d="m176 0h32v80h-32zm0 0" fill="#ffd782"/><path d="m144 16h32v64h-32zm0 0" fill="#d9833b"/></svg>